<svg xmlns="http://www.w3.org/2000/svg" viewBox="0 0 240 240" width="512" height="512" role="img" aria-labelledby="title">
  <title id="title">Foto de perfil</title>
  <defs>
    <radialGradient id="bg" cx="50%" cy="30%">
      <stop offset="0%" stop-color="#FFF1F3"/>
      <stop offset="100%" stop-color="#E8F4FF"/>
    </radialGradient>
  </defs>
  <rect width="240" height="240" rx="24" fill="url(#bg)" />

  <!-- cabello -->
  <path d="M60 92c0-26 24-44 48-44s48 18 48 44v8c0 8-8 14-14 14H74c-6 0-14-6-14-14z" fill="#3B2F6B"/>
  <!-- cara -->
  <circle cx="120" cy="120" r="42" fill="#FFD8BF" />
  <!-- ojos -->
  <ellipse cx="108" cy="118" rx="4" ry="3" fill="#3A3A3A" />
  <ellipse cx="132" cy="118" rx="4" ry="3" fill="#3A3A3A" />
  <!-- sonrisa -->
  <path d="M108 132c3 3 9 3 12 0" stroke="#B04" stroke-width="2" fill="none" stroke-linecap="round" />

  <!-- ropa -->
  <path d="M70 160c0 0 16 18 50 18s50-18 50-18v34a12 12 0 0 1-12 12H82a12 12 0 0 1-12-12z" fill="#6E4CB8"/>

  <!-- subtle detail -->
  <circle cx="170" cy="50" r="10" fill="#FFD36B" opacity="0.25" />
</svg>
